<?xml version="1.0" encoding="UTF-8" standalone="no"?>
<!-- Created with Inkscape (http://www.inkscape.org/) -->

<svg
   xmlns:dc="http://purl.org/dc/elements/1.1/"
   xmlns:cc="http://creativecommons.org/ns#"
   xmlns:rdf="http://www.w3.org/1999/02/22-rdf-syntax-ns#"
   xmlns:svg="http://www.w3.org/2000/svg"
   xmlns="http://www.w3.org/2000/svg"
   xmlns:xlink="http://www.w3.org/1999/xlink"
   xmlns:sodipodi="http://sodipodi.sourceforge.net/DTD/sodipodi-0.dtd"
   xmlns:inkscape="http://www.inkscape.org/namespaces/inkscape"
   width="1920"
   height="1080"
   viewBox="0 0 507.99998 285.75002"
   version="1.1"
   id="svg8"
   inkscape:version="0.92.4 (5da689c313, 2019-01-14)"
   sodipodi:docname="ramspeakswide.svg"
   inkscape:export-filename="/home/ram/Documents/Multimedia/Images/Vector/Logo/ram-speaks-wide.png"
   inkscape:export-xdpi="96"
   inkscape:export-ydpi="96">
  <defs
     id="defs2">
    <linearGradient
       inkscape:collect="always"
       id="linearGradient821">
      <stop
         style="stop-color:#222222;stop-opacity:1;"
         offset="0"
         id="stop817" />
      <stop
         style="stop-color:#313131;stop-opacity:1"
         offset="1"
         id="stop819" />
    </linearGradient>
    <linearGradient
       inkscape:collect="always"
       xlink:href="#linearGradient821"
       id="linearGradient823"
       x1="0"
       y1="297.00006"
       x2="1058.3334"
       y2="-761.33331"
       gradientUnits="userSpaceOnUse"
       gradientTransform="matrix(0.07987644,0,0,0.07987644,21.265308,92.756935)" />
    <linearGradient
       inkscape:collect="always"
       xlink:href="#linearGradient821"
       id="linearGradient912"
       x1="508"
       y1="-1.1368684e-13"
       x2="-2.7755576e-17"
       y2="285.75"
       gradientUnits="userSpaceOnUse" />
    <filter
       style="color-interpolation-filters:sRGB;"
       inkscape:label="Drop Shadow"
       id="filter3098">
      <feFlood
         flood-opacity="0.498039"
         flood-color="rgb(0,0,0)"
         result="flood"
         id="feFlood3088" />
      <feComposite
         in="flood"
         in2="SourceGraphic"
         operator="in"
         result="composite1"
         id="feComposite3090" />
      <feGaussianBlur
         in="composite1"
         stdDeviation="4"
         result="blur"
         id="feGaussianBlur3092" />
      <feOffset
         dx="2"
         dy="2"
         result="offset"
         id="feOffset3094" />
      <feComposite
         in="SourceGraphic"
         in2="offset"
         operator="over"
         result="composite2"
         id="feComposite3096" />
    </filter>
  </defs>
  <sodipodi:namedview
     id="base"
     pagecolor="#ffffff"
     bordercolor="#666666"
     borderopacity="1.0"
     inkscape:pageopacity="0.0"
     inkscape:pageshadow="2"
     inkscape:zoom="0.31999999"
     inkscape:cx="-1258.9733"
     inkscape:cy="689.86813"
     inkscape:document-units="mm"
     inkscape:current-layer="layer4"
     showgrid="false"
     units="px"
     inkscape:window-width="1920"
     inkscape:window-height="1016"
     inkscape:window-x="0"
     inkscape:window-y="27"
     inkscape:window-maximized="1"
     showguides="true"
     inkscape:guide-bbox="true" />
  <metadata
     id="metadata5">
    <rdf:RDF>
      <cc:Work
         rdf:about="">
        <dc:format>image/svg+xml</dc:format>
        <dc:type
           rdf:resource="http://purl.org/dc/dcmitype/StillImage" />
        <dc:title />
      </cc:Work>
    </rdf:RDF>
  </metadata>
  <g
     inkscape:groupmode="layer"
     id="layer3"
     inkscape:label="Base"
     sodipodi:insensitive="true">
    <rect
       style="opacity:1;fill:url(#linearGradient912);fill-opacity:1;stroke:none;stroke-width:0.13229166;stroke-miterlimit:4;stroke-dasharray:none;stroke-opacity:1"
       id="rect904"
       width="508"
       height="285.75"
       x="-2.7755576e-17"
       y="-1.1368684e-13" />
  </g>
  <g
     inkscape:label="Background"
     inkscape:groupmode="layer"
     id="layer1"
     transform="translate(0,-11.249983)"
     sodipodi:insensitive="true">
    <rect
       id="rect10"
       width="84.535904"
       height="84.535904"
       x="21.265306"
       y="31.94434"
       style="fill:url(#linearGradient823);fill-opacity:1;stroke-width:0.02113397;filter:url(#filter3098)"
       ry="13.264295" />
  </g>
  <g
     inkscape:groupmode="layer"
     id="layer4"
     inkscape:label="Data">
    <g
       aria-label="anchor.fm/ramiyer "
       style="font-style:normal;font-variant:normal;font-weight:bold;font-stretch:normal;font-size:10.58333302px;line-height:1.25;font-family:'Zilla Slab';-inkscape-font-specification:'Zilla Slab Bold';letter-spacing:0px;word-spacing:0px;fill:#000000;fill-opacity:1;stroke:none;stroke-width:0.26458332"
       id="text983"
       transform="translate(4.6772169,-1.6496367)">
      <path
         d="m 19.834608,263.4117 q 0.950736,0 1.481667,0.43215 0.543278,0.41981 0.543278,1.18533 0,0.22225 -0.07408,1.40759 -0.01235,0.34572 -0.03704,0.71614 -0.0247,0.35807 -0.0247,0.61736 0,0.2099 0.06174,0.29633 0.06174,0.0741 0.22225,0.0741 0.123473,0 0.321028,-0.0494 l 0.123472,0.0988 -0.148166,0.86431 q -0.395111,0.25929 -0.901347,0.30868 -0.370417,-0.037 -0.617362,-0.25929 -0.246944,-0.2346 -0.333375,-0.64206 h -0.08643 q -0.617361,0.65441 -1.271764,0.9137 -0.889,-0.0123 -1.395236,-0.4692 -0.506236,-0.45684 -0.506236,-1.24707 0,-0.61736 0.30868,-0.96308 0.321028,-0.35807 0.963084,-0.48154 l 1.889125,-0.35807 v -0.50624 q 0,-0.80257 -0.790223,-0.80257 -0.382763,0 -0.814916,0.17286 -0.419806,0.17287 -0.950736,0.54328 l -0.123473,-0.0741 -0.185208,-1.08656 q 0.530931,-0.33337 1.135945,-0.50623 0.605013,-0.18521 1.210027,-0.18521 z m -0.802569,3.556 q -0.197556,0.0494 -0.296333,0.17286 -0.08643,0.11112 -0.08643,0.34572 0,0.32103 0.172861,0.50624 0.172861,0.17286 0.481542,0.17286 0.481541,0 1.012472,-0.56797 l 0.02469,-0.9137 z"
         style="font-style:normal;font-variant:normal;font-weight:bold;font-stretch:normal;font-size:12.34722233px;font-family:'Alegreya Sans';-inkscape-font-specification:'Alegreya Sans Bold';fill:#ffffff;fill-opacity:1;stroke-width:0.26458332"
         id="path1018"
         inkscape:connector-curvature="0" />
      <path
         d="m 26.96648,265.68359 q 0.01235,-0.43216 -0.197556,-0.66675 -0.197555,-0.24695 -0.580319,-0.24695 -0.555625,0 -1.185334,0.53093 v 1.43228 l 0.07408,2.53118 H 23.43517 l 0.08643,-2.37066 -0.06174,-3.25967 1.555751,-0.13582 v 0.83961 h 0.08643 q 0.679097,-0.61736 1.481667,-0.889 0.938389,0 1.432278,0.43215 0.493888,0.41981 0.469194,1.22238 l -0.03704,1.64218 0.07408,2.51883 h -1.654528 z"
         style="font-style:normal;font-variant:normal;font-weight:bold;font-stretch:normal;font-size:12.34722233px;font-family:'Alegreya Sans';-inkscape-font-specification:'Alegreya Sans Bold';fill:#ffffff;fill-opacity:1;stroke-width:0.26458332"
         id="path1020"
         inkscape:connector-curvature="0" />
      <path
         d="m 32.32884,263.4117 q 0.407458,0 0.802569,0.0864 0.407458,0.0741 0.716139,0.22225 l -0.271639,1.3088 -0.135819,0.0617 q -0.629709,-0.34572 -1.123598,-0.34572 -0.567972,0 -0.876652,0.40746 -0.308681,0.40746 -0.308681,1.16064 0,0.8643 0.333375,1.32115 0.333375,0.45685 0.950736,0.45685 0.555625,0 1.234722,-0.30868 l 0.123473,0.0988 -0.160514,1.27177 q -0.740834,0.23459 -1.518709,0.23459 -1.185333,0 -1.852083,-0.76552 -0.66675,-0.77788 -0.66675,-2.16077 0,-1.43228 0.728486,-2.23484 0.728486,-0.81492 2.024945,-0.81492 z"
         style="font-style:normal;font-variant:normal;font-weight:bold;font-stretch:normal;font-size:12.34722233px;font-family:'Alegreya Sans';-inkscape-font-specification:'Alegreya Sans Bold';fill:#ffffff;fill-opacity:1;stroke-width:0.26458332"
         id="path1022"
         inkscape:connector-curvature="0" />
      <path
         d="m 38.25377,265.68359 q 0.01235,-0.4445 -0.185208,-0.6791 -0.197556,-0.2346 -0.58032,-0.2346 -0.555625,0 -1.185333,0.53093 l -0.02469,1.43228 0.08643,2.53118 h -1.64218 l 0.08643,-2.38301 -0.07408,-6.16127 1.64218,-0.12347 -0.06174,3.74121 h 0.07408 q 0.679097,-0.61736 1.494014,-0.889 0.938388,0 1.41993,0.43215 0.493889,0.41981 0.481542,1.22238 l -0.03704,1.64218 0.06174,2.51883 h -1.64218 z"
         style="font-style:normal;font-variant:normal;font-weight:bold;font-stretch:normal;font-size:12.34722233px;font-family:'Alegreya Sans';-inkscape-font-specification:'Alegreya Sans Bold';fill:#ffffff;fill-opacity:1;stroke-width:0.26458332"
         id="path1024"
         inkscape:connector-curvature="0" />
      <path
         d="m 43.639668,263.4117 q 1.259416,0 1.926166,0.74083 0.66675,0.74084 0.66675,2.13607 0,1.50636 -0.716138,2.30893 -0.716139,0.79022 -2.061987,0.79022 -1.259416,0 -1.926166,-0.74083 -0.66675,-0.74083 -0.66675,-2.13607 0,-1.50636 0.716139,-2.29658 0.716139,-0.80257 2.061986,-0.80257 z m -0.111125,1.11125 q -0.592667,0 -0.864306,0.39511 -0.259291,0.39511 -0.259291,1.27176 0,1.13595 0.271638,1.61749 0.271639,0.48154 0.889,0.48154 0.592667,0 0.851959,-0.38276 0.271639,-0.39511 0.271639,-1.28411 0,-1.1236 -0.283986,-1.60514 -0.271639,-0.49389 -0.876653,-0.49389 z"
         style="font-style:normal;font-variant:normal;font-weight:bold;font-stretch:normal;font-size:12.34722233px;font-family:'Alegreya Sans';-inkscape-font-specification:'Alegreya Sans Bold';fill:#ffffff;fill-opacity:1;stroke-width:0.26458332"
         id="path1026"
         inkscape:connector-curvature="0" />
      <path
         d="m 50.458805,263.51048 q 0.111125,0 0.308681,0.0247 v 1.51871 l -0.172861,0.0617 q -0.209903,-0.0864 -0.456847,-0.0864 -0.716139,0 -1.296459,0.92605 v 0.77787 l 0.08643,2.53118 h -1.642181 l 0.09878,-2.37066 -0.07408,-3.25967 1.55575,-0.13582 -0.01235,1.1236 h 0.09878 q 0.605014,-1.11125 1.506361,-1.11125 z"
         style="font-style:normal;font-variant:normal;font-weight:bold;font-stretch:normal;font-size:12.34722233px;font-family:'Alegreya Sans';-inkscape-font-specification:'Alegreya Sans Bold';fill:#ffffff;fill-opacity:1;stroke-width:0.26458332"
         id="path1028"
         inkscape:connector-curvature="0" />
      <path
         d="m 51.377324,267.59741 q 0.382764,0 0.592667,0.22225 0.22225,0.22225 0.22225,0.61736 0,0.4198 -0.234597,0.66675 -0.234598,0.24694 -0.642056,0.24694 -0.407458,0 -0.629708,-0.22225 -0.209903,-0.22225 -0.209903,-0.62971 0,-0.40745 0.234597,-0.6544 0.246945,-0.24694 0.66675,-0.24694 z"
         style="font-style:normal;font-variant:normal;font-weight:bold;font-stretch:normal;font-size:12.34722233px;font-family:'Alegreya Sans';-inkscape-font-specification:'Alegreya Sans Bold';fill:#ffffff;fill-opacity:1;stroke-width:0.26458332"
         id="path1030"
         inkscape:connector-curvature="0" />
      <path
         d="m 56.374862,260.57184 q 0.506236,0 1.074208,0.11112 l -0.111125,1.22238 -0.111125,0.0741 q -0.580319,-0.24694 -1.012472,-0.24694 -0.765528,0 -0.777875,0.87665 l -0.01235,0.96308 h 1.395236 l 0.04939,0.0864 -0.07408,0.90135 h -1.395237 l -0.03704,2.17311 0.08643,2.53118 h -1.64218 l 0.09878,-2.38301 -0.02469,-2.32128 h -0.864305 l -0.06174,-0.0864 0.08643,-0.90135 h 0.827264 l -0.01235,-0.67909 q 0,-1.11125 0.654402,-1.71627 0.66675,-0.60501 1.864431,-0.60501 z"
         style="font-style:normal;font-variant:normal;font-weight:bold;font-stretch:normal;font-size:12.34722233px;font-family:'Alegreya Sans';-inkscape-font-specification:'Alegreya Sans Bold';fill:#ffffff;fill-opacity:1;stroke-width:0.26458332"
         id="path1032"
         inkscape:connector-curvature="0" />
      <path
         d="m 64.315671,269.26428 0.09878,-3.58069 q 0,-0.9137 -0.777875,-0.9137 -0.555625,0 -1.160639,0.49389 l -0.03704,1.48167 0.07408,2.51883 h -1.64218 l 0.09878,-3.58069 q 0.01235,-0.4445 -0.197555,-0.6791 -0.197556,-0.2346 -0.58032,-0.2346 -0.543277,0 -1.19768,0.51859 v 1.44462 l 0.07408,2.53118 h -1.629833 l 0.08643,-2.37066 -0.06174,-3.25967 1.543403,-0.13582 v 0.83961 h 0.08643 q 0.679097,-0.61736 1.494013,-0.889 1.382889,0 1.765653,0.92604 h 0.07408 q 0.703791,-0.6544 1.605138,-0.92604 0.938389,0 1.419931,0.43215 0.493889,0.41981 0.469195,1.22238 l -0.03704,1.64218 0.07408,2.51883 z"
         style="font-style:normal;font-variant:normal;font-weight:bold;font-stretch:normal;font-size:12.34722233px;font-family:'Alegreya Sans';-inkscape-font-specification:'Alegreya Sans Bold';fill:#ffffff;fill-opacity:1;stroke-width:0.26458332"
         id="path1034"
         inkscape:connector-curvature="0" />
      <path
         d="m 70.423107,261.01634 -2.555875,9.66787 h -1.135944 l -0.09878,-0.13582 2.543528,-9.68022 h 1.11125 z"
         style="font-style:normal;font-variant:normal;font-weight:bold;font-stretch:normal;font-size:12.34722233px;font-family:'Alegreya Sans';-inkscape-font-specification:'Alegreya Sans Bold';fill:#ffffff;fill-opacity:1;stroke-width:0.26458332"
         id="path1036"
         inkscape:connector-curvature="0" />
      <path
         d="m 74.068047,263.51048 q 0.111125,0 0.30868,0.0247 v 1.51871 l -0.172861,0.0617 q -0.209902,-0.0864 -0.456847,-0.0864 -0.716139,0 -1.296458,0.92605 v 0.77787 l 0.08643,2.53118 h -1.64218 l 0.09878,-2.37066 -0.07408,-3.25967 1.55575,-0.13582 -0.01235,1.1236 h 0.09878 q 0.605014,-1.11125 1.506361,-1.11125 z"
         style="font-style:normal;font-variant:normal;font-weight:bold;font-stretch:normal;font-size:12.34722233px;font-family:'Alegreya Sans';-inkscape-font-specification:'Alegreya Sans Bold';fill:#ffffff;fill-opacity:1;stroke-width:0.26458332"
         id="path1038"
         inkscape:connector-curvature="0" />
      <path
         d="m 77.326361,263.4117 q 0.950736,0 1.481667,0.43215 0.543277,0.41981 0.543277,1.18533 0,0.22225 -0.07408,1.40759 -0.01235,0.34572 -0.03704,0.71614 -0.02469,0.35807 -0.02469,0.61736 0,0.2099 0.06174,0.29633 0.06174,0.0741 0.22225,0.0741 0.123472,0 0.321028,-0.0494 l 0.123472,0.0988 -0.148167,0.86431 q -0.395111,0.25929 -0.901347,0.30868 -0.370416,-0.037 -0.617361,-0.25929 -0.246944,-0.2346 -0.333375,-0.64206 h -0.08643 q -0.617361,0.65441 -1.271763,0.9137 -0.889,-0.0123 -1.395237,-0.4692 -0.506236,-0.45684 -0.506236,-1.24707 0,-0.61736 0.308681,-0.96308 0.321028,-0.35807 0.963083,-0.48154 l 1.889125,-0.35807 v -0.50624 q 0,-0.80257 -0.790222,-0.80257 -0.382764,0 -0.814917,0.17286 -0.419805,0.17287 -0.950736,0.54328 l -0.123472,-0.0741 -0.185208,-1.08656 q 0.53093,-0.33337 1.135944,-0.50623 0.605014,-0.18521 1.210028,-0.18521 z m -0.80257,3.556 q -0.197555,0.0494 -0.296333,0.17286 -0.08643,0.11112 -0.08643,0.34572 0,0.32103 0.172861,0.50624 0.172861,0.17286 0.481541,0.17286 0.481542,0 1.012473,-0.56797 l 0.02469,-0.9137 z"
         style="font-style:normal;font-variant:normal;font-weight:bold;font-stretch:normal;font-size:12.34722233px;font-family:'Alegreya Sans';-inkscape-font-specification:'Alegreya Sans Bold';fill:#ffffff;fill-opacity:1;stroke-width:0.26458332"
         id="path1040"
         inkscape:connector-curvature="0" />
      <path
         d="m 87.80433,269.26428 0.09878,-3.58069 q 0,-0.9137 -0.777875,-0.9137 -0.555625,0 -1.160639,0.49389 l -0.03704,1.48167 0.07408,2.51883 h -1.642181 l 0.09878,-3.58069 q 0.01235,-0.4445 -0.197555,-0.6791 -0.197556,-0.2346 -0.58032,-0.2346 -0.543278,0 -1.19768,0.51859 v 1.44462 l 0.07408,2.53118 h -1.629833 l 0.08643,-2.37066 -0.06174,-3.25967 1.543403,-0.13582 v 0.83961 h 0.08643 q 0.679098,-0.61736 1.494014,-0.889 1.382889,0 1.765653,0.92604 h 0.07408 q 0.703792,-0.6544 1.605139,-0.92604 0.938389,0 1.419931,0.43215 0.493889,0.41981 0.469194,1.22238 l -0.03704,1.64218 0.07408,2.51883 z"
         style="font-style:normal;font-variant:normal;font-weight:bold;font-stretch:normal;font-size:12.34722233px;font-family:'Alegreya Sans';-inkscape-font-specification:'Alegreya Sans Bold';fill:#ffffff;fill-opacity:1;stroke-width:0.26458332"
         id="path1042"
         inkscape:connector-curvature="0" />
      <path
         d="m 90.997822,266.89362 -0.06174,-3.25967 1.617486,-0.13582 -0.07408,3.23497 0.07408,2.53118 h -1.642181 z m 0.777875,-6.18596 q 0.382764,0 0.592667,0.22225 0.22225,0.22225 0.22225,0.61736 0,0.4198 -0.234598,0.66675 -0.234597,0.24694 -0.642055,0.24694 -0.407459,0 -0.629709,-0.22225 -0.209902,-0.22225 -0.209902,-0.62971 0,-0.40745 0.234597,-0.6544 0.246944,-0.24694 0.66675,-0.24694 z"
         style="font-style:normal;font-variant:normal;font-weight:bold;font-stretch:normal;font-size:12.34722233px;font-family:'Alegreya Sans';-inkscape-font-specification:'Alegreya Sans Bold';fill:#ffffff;fill-opacity:1;stroke-width:0.26458332"
         id="path1044"
         inkscape:connector-curvature="0" />
      <path
         d="m 95.105973,264.39948 1.02482,3.21027 h 0.09878 l 1.024819,-3.07445 0.209903,-1.01248 h 1.407583 l -1.876778,5.3587 q -0.296333,0.83961 -0.66675,1.34585 -0.370416,0.51858 -0.926041,0.83961 -0.555625,0.33337 -1.432278,0.56797 l -0.123472,-0.0124 q -0.419806,-0.40746 -0.691445,-0.96308 l 0.04939,-0.16052 q 0.777875,-0.13581 1.284111,-0.40745 0.506236,-0.2593 0.963084,-0.82727 l -2.099028,-5.70441 1.55575,-0.0741 z"
         style="font-style:normal;font-variant:normal;font-weight:bold;font-stretch:normal;font-size:12.34722233px;font-family:'Alegreya Sans';-inkscape-font-specification:'Alegreya Sans Bold';fill:#ffffff;fill-opacity:1;stroke-width:0.26458332"
         id="path1046"
         inkscape:connector-curvature="0" />
      <path
         d="m 103.941,266.59728 -3.33375,0.0247 q 0.11112,1.5434 1.56809,1.5434 0.76553,0 1.70392,-0.43215 l 0.13582,0.0864 -0.24695,1.22237 q -0.93838,0.34572 -1.76565,0.34572 -1.35819,0 -2.136068,-0.79022 -0.765528,-0.79022 -0.765528,-2.18546 0,-1.38289 0.753181,-2.18545 0.753185,-0.81492 2.037295,-0.81492 1.0989,0 1.69157,0.60501 0.60501,0.59267 0.60501,1.66688 0,0.28398 -0.0617,0.71614 z m -1.18534,-1.0989 q 0,-0.49389 -0.22225,-0.74083 -0.22225,-0.2593 -0.6544,-0.2593 -0.48154,0 -0.80257,0.32103 -0.32103,0.30868 -0.43215,0.90135 l 2.08668,-0.0494 z"
         style="font-style:normal;font-variant:normal;font-weight:bold;font-stretch:normal;font-size:12.34722233px;font-family:'Alegreya Sans';-inkscape-font-specification:'Alegreya Sans Bold';fill:#ffffff;fill-opacity:1;stroke-width:0.26458332"
         id="path1048"
         inkscape:connector-curvature="0" />
      <path
         d="m 108.50522,263.51048 q 0.11113,0 0.30868,0.0247 v 1.51871 l -0.17286,0.0617 q -0.2099,-0.0864 -0.45685,-0.0864 -0.71613,0 -1.29645,0.92605 v 0.77787 l 0.0864,2.53118 h -1.64218 l 0.0988,-2.37066 -0.0741,-3.25967 1.55575,-0.13582 -0.0123,1.1236 h 0.0988 q 0.60502,-1.11125 1.50636,-1.11125 z"
         style="font-style:normal;font-variant:normal;font-weight:bold;font-stretch:normal;font-size:12.34722233px;font-family:'Alegreya Sans';-inkscape-font-specification:'Alegreya Sans Bold';fill:#ffffff;fill-opacity:1;stroke-width:0.26458332"
         id="path1050"
         inkscape:connector-curvature="0" />
    </g>
    <path
       inkscape:connector-curvature="0"
       id="path1056"
       style="font-style:normal;font-variant:normal;font-weight:bold;font-stretch:normal;font-size:10.58333302px;line-height:1.25;font-family:'Zilla Slab';-inkscape-font-specification:'Zilla Slab Bold';letter-spacing:0px;word-spacing:0px;fill:#ffffff;fill-opacity:1;stroke:none;stroke-width:0.26458332"
       d="m 131.30546,269.5099 c 0.16536,-0.59945 0.43408,-2.06706 0.43408,-2.74919 0,-0.72347 -0.66146,-0.9095 -1.32291,-0.9095 -0.68213,0 -1.32292,0.18603 -1.32292,0.9095 0,0.68213 0.24805,2.17041 0.41341,2.74919 0.10335,0.39274 0.51676,0.47542 0.90951,0.47542 0.37207,0 0.78548,-0.0827 0.88883,-0.47542 z m -2.29443,-4.13412 c -0.37207,-0.37207 -0.62012,-0.9095 -0.57878,-1.50895 0.0413,-1.01286 0.86816,-1.86035 1.90169,-1.88102 1.11621,-0.062 2.06706,0.84749 2.06706,1.9637 0,0.55811 -0.24805,1.07487 -0.59945,1.42627 -0.062,0.062 -0.062,0.1447 0,0.18604 0.20671,0.14469 0.3514,0.33073 0.43409,0.53743 0.0413,0.062 0.14469,0.0827 0.2067,0.0207 0.59945,-0.5581 0.95085,-1.34358 0.93018,-2.23242 -0.0207,-1.57096 -1.30225,-2.85254 -2.87321,-2.89388 -1.69499,-0.062 -3.05925,1.30225 -3.05925,2.95589 0,0.86817 0.3514,1.63298 0.93018,2.17041 0.062,0.062 0.16536,0.0413 0.2067,-0.0207 0.0827,-0.2067 0.22738,-0.39274 0.43409,-0.53743 0.062,-0.0413 0.062,-0.12403 0,-0.18604 z m 1.4056,-5.97379 c -2.56316,0 -4.63021,2.08772 -4.63021,4.63021 0,1.86035 1.07487,3.43131 2.58382,4.17545 0.10335,0.0413 0.2067,-0.0413 0.18603,-0.12402 -0.062,-0.33073 -0.10335,-0.64079 -0.12402,-0.93018 0,-0.0413 -0.0207,-0.062 -0.0413,-0.0827 -0.99219,-0.66146 -1.63298,-1.77767 -1.61231,-3.05925 0,-1.98437 1.63298,-3.59668 3.61735,-3.59668 2.00505,-0.0207 3.6587,1.61231 3.6587,3.61736 0,1.28157 -0.68213,2.41845 -1.67432,3.05924 -0.0207,0.28939 -0.062,0.64079 -0.12402,0.99219 -0.0207,0.0827 0.0827,0.16536 0.18603,0.12402 1.50895,-0.74414 2.60449,-2.29443 2.60449,-4.17545 0,-2.54249 -2.08772,-4.63021 -4.6302,-4.63021 z m 0,3.30729 c -0.74415,0 -1.32292,0.59945 -1.32292,1.32292 0,0.74414 0.57877,1.32291 1.32292,1.32291 0.72347,0 1.32291,-0.57877 1.32291,-1.32291 0,-0.72347 -0.59944,-1.32292 -1.32291,-1.32292 z" />
    <path
       inkscape:connector-curvature="0"
       id="path1058"
       style="font-style:normal;font-variant:normal;font-weight:bold;font-stretch:normal;font-size:10.58333302px;line-height:1.25;font-family:'Zilla Slab';-inkscape-font-specification:'Zilla Slab Bold';letter-spacing:0px;word-spacing:0px;fill:#ffffff;fill-opacity:1;stroke:none;stroke-width:0.26458332"
       d="m 144.15881,259.73271 c -2.83187,0 -5.1263,2.31511 -5.1263,5.1263 0,2.83187 2.29443,5.12631 5.1263,5.12631 2.8112,0 5.1263,-2.29444 5.1263,-5.12631 0,-2.81119 -2.3151,-5.1263 -5.1263,-5.1263 z m 2.06706,7.54476 c -0.0827,0 -0.1447,-0.0207 -0.20671,-0.062 -1.30225,-0.78548 -2.79053,-0.80615 -4.27881,-0.51677 -0.0827,0.0207 -0.18603,0.062 -0.24804,0.062 -0.20671,0 -0.33073,-0.16537 -0.33073,-0.33073 0,-0.20671 0.12402,-0.31006 0.28938,-0.3514 1.69499,-0.37207 3.41065,-0.33073 4.89893,0.53743 0.12402,0.0827 0.18604,0.16537 0.18604,0.3514 0,0.18604 -0.1447,0.31006 -0.31006,0.31006 z m 0.5581,-1.34359 c -0.10335,0 -0.18603,-0.062 -0.24804,-0.0827 -1.30225,-0.76481 -3.22461,-1.07487 -4.94027,-0.62012 -0.10335,0.0207 -0.1447,0.062 -0.24805,0.062 -0.2067,0 -0.39274,-0.18604 -0.39274,-0.41342 0,-0.2067 0.10335,-0.3514 0.31006,-0.41341 0.57878,-0.16536 1.17822,-0.28939 2.02572,-0.28939 1.34358,0 2.64583,0.33073 3.65869,0.95085 0.16536,0.0827 0.24804,0.22738 0.24804,0.39274 -0.0207,0.22738 -0.18603,0.41341 -0.41341,0.41341 z m 0.64079,-1.57096 c -0.10335,0 -0.16536,-0.0413 -0.26872,-0.0827 -1.46761,-0.88884 -4.09277,-1.09554 -5.80843,-0.62012 -0.062,0.0207 -0.16536,0.062 -0.26872,0.062 -0.26871,0 -0.47542,-0.22737 -0.47542,-0.49609 0,-0.28939 0.18604,-0.43408 0.37207,-0.4961 0.72347,-0.2067 1.52962,-0.31005 2.41846,-0.31005 1.50895,0 3.10058,0.31005 4.23747,0.99218 0.16536,0.0827 0.26871,0.20671 0.26871,0.45476 0,0.28938 -0.22737,0.49609 -0.47542,0.49609 z" />
    <g
       aria-label="|"
       style="font-style:normal;font-variant:normal;font-weight:bold;font-stretch:normal;font-size:10.58333302px;line-height:1.25;font-family:'Zilla Slab';-inkscape-font-specification:'Zilla Slab Bold';letter-spacing:0px;word-spacing:0px;fill:#000000;fill-opacity:1;stroke:none;stroke-width:0.26458332"
       id="text1016"
       transform="translate(5.1711281,0.20307301)">
      <path
         d="m 115.018,258.63797 -0.0318,5.32342 v 5.74675 l -0.9525,0.0741 -0.11641,-0.127 0.0106,-5.588 0.0106,-5.45042 0.97367,-0.0741 z"
         style="font-style:normal;font-variant:normal;font-weight:bold;font-stretch:normal;font-family:'Alegreya Sans';-inkscape-font-specification:'Alegreya Sans Bold';fill:#ffffff;fill-opacity:1;stroke-width:0.26458332"
         id="path1053"
         inkscape:connector-curvature="0" />
    </g>
  </g>
  <g
     inkscape:groupmode="layer"
     id="layer2"
     inkscape:label="Text"
     transform="translate(0,-772.58333)"
     sodipodi:insensitive="true">
    <g
       aria-label="ram speaks"
       transform="matrix(0.37745994,0,0,0.37745994,-701.0452,365.4369)"
       style="font-style:normal;font-weight:normal;font-size:40px;line-height:1.25;font-family:sans-serif;letter-spacing:0px;word-spacing:0px;fill:#000000;fill-opacity:1;stroke:none"
       id="flowRoot826">
      <path
         d="m 1946.6784,1311.99 q 0.24,0 0.96,0.08 v 5.8 l -0.64,0.2 q -0.56,-0.28 -1.48,-0.28 -2.16,0 -3.96,2.32 v 2.36 l 0.28,8.28 h -6.32 l 0.32,-7.64 -0.28,-10.68 6.04,-0.48 v 3.6 h 0.28 q 1.88,-3.56 4.8,-3.56 z"
         style="font-style:normal;font-variant:normal;font-weight:800;font-stretch:normal;font-family:'Alegreya Sans';-inkscape-font-specification:'Alegreya Sans Ultra-Bold';text-align:center;text-anchor:middle;fill:#ffffff"
         id="path1059"
         inkscape:connector-curvature="0" />
      <path
         d="m 1957.3828,1311.63 q 3.32,0 5.16,1.44 1.84,1.4 1.84,4.04 0,0.92 -0.08,2.12 -0.08,1.2 -0.12,2.28 -0.2,2.88 -0.2,3.96 0,0.56 0.16,0.8 0.2,0.24 0.64,0.24 0.36,0 0.88,-0.16 l 0.44,0.36 -0.56,3.32 q -1.32,0.92 -3.24,1.08 -1.2,-0.12 -2.04,-0.84 -0.84,-0.72 -1.2,-2.04 h -0.28 q -2,2.12 -4.08,2.92 -2.96,-0.04 -4.68,-1.6 -1.68,-1.56 -1.68,-4.24 0,-4.12 4.32,-4.84 l 5.92,-1 v -1.16 q 0,-1.24 -0.56,-1.76 -0.52,-0.56 -1.72,-0.56 -1.2,0 -2.6,0.52 -1.36,0.52 -3.16,1.64 l -0.4,-0.28 -0.72,-4.12 q 1.8,-1 3.88,-1.56 2.08,-0.56 4.08,-0.56 z m -2.24,11.48 q -0.6,0.12 -0.92,0.48 -0.28,0.36 -0.28,1.08 0,0.96 0.48,1.48 0.52,0.52 1.4,0.52 1.28,0 2.72,-1.36 l 0.04,-2.88 z"
         style="font-style:normal;font-variant:normal;font-weight:800;font-stretch:normal;font-family:'Alegreya Sans';-inkscape-font-specification:'Alegreya Sans Ultra-Bold';text-align:center;text-anchor:middle;fill:#ffffff"
         id="path1061"
         inkscape:connector-curvature="0" />
      <path
         d="m 1991.3159,1319.55 q 0.08,-2.76 -2.24,-2.76 -1.4,0 -3,1.16 l -0.12,4.52 0.28,8.28 h -6.28 l 0.32,-11.2 q 0.08,-2.76 -2.28,-2.76 -1.36,0 -3.04,1.24 v 4.44 l 0.28,8.28 h -6.28 l 0.28,-7.64 -0.24,-10.68 5.96,-0.48 v 2.76 h 0.28 q 2.2,-2.08 4.76,-2.92 2.24,0 3.68,0.8 1.48,0.76 2.04,2.2 h 0.24 q 2.2,-2.08 5.12,-3 3,0 4.56,1.4 1.6,1.36 1.52,3.92 l -0.12,5.36 0.24,8.28 h -6.28 z"
         style="font-style:normal;font-variant:normal;font-weight:800;font-stretch:normal;font-family:'Alegreya Sans';-inkscape-font-specification:'Alegreya Sans Ultra-Bold';text-align:center;text-anchor:middle;fill:#ffffff"
         id="path1063"
         inkscape:connector-curvature="0" />
      <path
         d="m 2013.9591,1311.67 q 2.88,0 5.44,0.96 l -0.8,4.52 -0.76,0.24 q -1.28,-0.8 -2.52,-1.24 -1.2,-0.44 -2.08,-0.44 -0.8,0 -1.24,0.4 -0.44,0.36 -0.44,0.88 0,0.72 0.72,1.2 0.72,0.44 2.2,1 1.68,0.68 2.72,1.28 1.04,0.6 1.8,1.68 0.8,1.08 0.8,2.72 0,1.68 -0.84,3.12 -0.84,1.44 -2.64,2.32 -1.76,0.88 -4.4,0.88 -2.96,0 -6.28,-1.12 l 0.76,-4.8 0.56,-0.4 q 1.32,1.08 2.92,1.72 1.64,0.64 2.8,0.64 0.88,0 1.32,-0.4 0.48,-0.4 0.48,-1 0,-0.68 -0.72,-1.12 -0.68,-0.48 -2.2,-1.08 -1.64,-0.64 -2.72,-1.24 -1.08,-0.6 -1.88,-1.68 -0.76,-1.12 -0.76,-2.8 0,-2.76 2.08,-4.48 2.08,-1.76 5.68,-1.76 z"
         style="font-style:normal;font-variant:normal;font-weight:800;font-stretch:normal;font-family:'Alegreya Sans';-inkscape-font-specification:'Alegreya Sans Ultra-Bold';text-align:center;text-anchor:middle;fill:#ffffff"
         id="path1065"
         inkscape:connector-curvature="0" />
      <path
         d="m 2033.3822,1311.79 q 3.48,0 5.4,2.4 1.92,2.36 1.92,6.72 0,4.92 -2.48,7.6 -2.44,2.68 -6.96,2.68 -0.96,0 -2.24,-0.2 l 0.12,7.16 h -6.28 l 0.28,-15.04 -0.28,-10.68 6.04,-0.48 v 2.76 h 0.28 q 1.04,-1.08 2,-1.76 1,-0.68 2.2,-1.16 z m -2.24,15.36 q 3.64,0 3.64,-5.32 -0.04,-5 -3.2,-5 -1.32,0 -2.72,1.16 v 4.48 l 0.08,4.28 q 1.28,0.4 2.2,0.4 z"
         style="font-style:normal;font-variant:normal;font-weight:800;font-stretch:normal;font-family:'Alegreya Sans';-inkscape-font-specification:'Alegreya Sans Ultra-Bold';text-align:center;text-anchor:middle;fill:#ffffff"
         id="path1067"
         inkscape:connector-curvature="0" />
      <path
         d="m 2058.8797,1322.43 -10.48,0.08 q 0.28,2.08 1.44,3.08 1.16,1 3.28,1 2.12,0 5.6,-1.24 l 0.48,0.32 -0.96,4.52 q -3.2,1 -5.8,1 -4.6,0 -7.24,-2.6 -2.6,-2.6 -2.6,-7.16 0,-4.56 2.52,-7.16 2.52,-2.64 6.84,-2.64 3.72,0 5.76,2 2.08,2 2.08,5.56 0,1.16 -0.24,2.44 z m -4.56,-3.92 q 0,-2.76 -2.4,-2.76 -1.36,0 -2.24,0.92 -0.88,0.88 -1.2,2.56 l 5.76,-0.16 z"
         style="font-style:normal;font-variant:normal;font-weight:800;font-stretch:normal;font-family:'Alegreya Sans';-inkscape-font-specification:'Alegreya Sans Ultra-Bold';text-align:center;text-anchor:middle;fill:#ffffff"
         id="path1069"
         inkscape:connector-curvature="0" />
      <path
         d="m 2070.7422,1311.63 q 3.32,0 5.16,1.44 1.84,1.4 1.84,4.04 0,0.92 -0.08,2.12 -0.08,1.2 -0.12,2.28 -0.2,2.88 -0.2,3.96 0,0.56 0.16,0.8 0.2,0.24 0.64,0.24 0.36,0 0.88,-0.16 l 0.44,0.36 -0.56,3.32 q -1.32,0.92 -3.24,1.08 -1.2,-0.12 -2.04,-0.84 -0.84,-0.72 -1.2,-2.04 h -0.28 q -2,2.12 -4.08,2.92 -2.96,-0.04 -4.68,-1.6 -1.68,-1.56 -1.68,-4.24 0,-4.12 4.32,-4.84 l 5.92,-1 v -1.16 q 0,-1.24 -0.56,-1.76 -0.52,-0.56 -1.72,-0.56 -1.2,0 -2.6,0.52 -1.36,0.52 -3.16,1.64 l -0.4,-0.28 -0.72,-4.12 q 1.8,-1 3.88,-1.56 2.08,-0.56 4.08,-0.56 z m -2.24,11.48 q -0.6,0.12 -0.92,0.48 -0.28,0.36 -0.28,1.08 0,0.96 0.48,1.48 0.52,0.52 1.4,0.52 1.28,0 2.72,-1.36 l 0.04,-2.88 z"
         style="font-style:normal;font-variant:normal;font-weight:800;font-stretch:normal;font-family:'Alegreya Sans';-inkscape-font-specification:'Alegreya Sans Ultra-Bold';text-align:center;text-anchor:middle;fill:#ffffff"
         id="path1071"
         inkscape:connector-curvature="0" />
      <path
         d="m 2088.6316,1322.47 0.28,8.28 h -6.32 l 0.32,-7.68 -0.24,-19.96 6.28,-0.44 z m 6.08,-2.04 q 2.04,3.52 5.92,9.28 l -0.04,0.64 q -2.08,0.44 -5.92,0.84 l -0.64,-0.32 q -3.2,-4.92 -5.36,-9.88 v -0.4 l 4.12,-6.48 0.92,-2.08 h 6.56 z"
         style="font-style:normal;font-variant:normal;font-weight:800;font-stretch:normal;font-family:'Alegreya Sans';-inkscape-font-specification:'Alegreya Sans Ultra-Bold';text-align:center;text-anchor:middle;fill:#ffffff"
         id="path1073"
         inkscape:connector-curvature="0" />
      <path
         d="m 2109.8184,1311.67 q 2.88,0 5.44,0.96 l -0.8,4.52 -0.76,0.24 q -1.28,-0.8 -2.52,-1.24 -1.2,-0.44 -2.08,-0.44 -0.8,0 -1.24,0.4 -0.44,0.36 -0.44,0.88 0,0.72 0.72,1.2 0.72,0.44 2.2,1 1.68,0.68 2.72,1.28 1.04,0.6 1.8,1.68 0.8,1.08 0.8,2.72 0,1.68 -0.84,3.12 -0.84,1.44 -2.64,2.32 -1.76,0.88 -4.4,0.88 -2.96,0 -6.28,-1.12 l 0.76,-4.8 0.56,-0.4 q 1.32,1.08 2.92,1.72 1.64,0.64 2.8,0.64 0.88,0 1.32,-0.4 0.48,-0.4 0.48,-1 0,-0.68 -0.72,-1.12 -0.68,-0.48 -2.2,-1.08 -1.64,-0.64 -2.72,-1.24 -1.08,-0.6 -1.88,-1.68 -0.76,-1.12 -0.76,-2.8 0,-2.76 2.08,-4.48 2.08,-1.76 5.68,-1.76 z"
         style="font-style:normal;font-variant:normal;font-weight:800;font-stretch:normal;font-family:'Alegreya Sans';-inkscape-font-specification:'Alegreya Sans Ultra-Bold';text-align:center;text-anchor:middle;fill:#ffffff"
         id="path1075"
         inkscape:connector-curvature="0" />
    </g>
    <g
       aria-label="ï‰"
       style="font-style:normal;font-weight:normal;font-size:293.77017212px;line-height:1.25;font-family:sans-serif;letter-spacing:0px;word-spacing:0px;fill:#ffd900;fill-opacity:1;stroke:none;stroke-width:7.34425449"
       id="text859"
       transform="matrix(0.07987644,0,0,0.07987644,21.265308,793.27768)">
      <path
         d="m 621.99023,539.21758 h -9.18032 c -5.16393,0 -9.18032,4.59015 -9.18032,9.18031 v 27.54096 c 0,43.03274 -37.29504,77.45893 -80.90155,73.44254 C 484.28546,645.365 456.74451,611.51258 456.74451,573.07 v -24.67211 c 0,-4.59016 -4.59016,-9.18031 -9.18032,-9.18031 h -9.18032 c -5.16393,0 -9.18032,4.59015 -9.18032,9.18031 v 23.52457 c 0,51.06552 36.1475,96.96711 87.21302,103.85234 v 19.50818 h -32.13111 c -5.16393,0 -9.18032,4.59016 -9.18032,9.18032 v 9.18031 c 0,5.16393 4.01639,9.18032 9.18032,9.18032 h 91.80318 c 4.59016,0 9.18032,-4.01639 9.18032,-9.18032 v -9.18031 c 0,-4.59016 -4.59016,-9.18032 -9.18032,-9.18032 h -32.13111 v -18.93441 c 48.77043,-6.88524 87.21302,-49.34421 87.21302,-100.40972 v -27.54096 c 0,-4.59016 -4.59016,-9.18031 -9.18032,-9.18031 z m -91.80318,91.80317 c 30.4098,0 55.08191,-24.09833 55.08191,-55.0819 h -49.34421 c -3.44262,0 -5.7377,-1.72131 -5.7377,-4.59016 v -9.18032 c 0,-2.29508 2.29508,-4.59016 5.7377,-4.59016 h 49.34421 v -18.36063 h -49.34421 c -3.44262,0 -5.7377,-1.72131 -5.7377,-4.59016 v -9.18032 c 0,-2.29508 2.29508,-4.59016 5.7377,-4.59016 h 49.34421 V 502.4963 h -49.34421 c -3.44262,0 -5.7377,-1.72131 -5.7377,-4.59016 v -9.18031 c 0,-2.29508 2.29508,-4.59016 5.7377,-4.59016 h 49.34421 c 0,-30.40981 -24.67211,-55.08191 -55.08191,-55.08191 -30.98357,0 -55.08191,24.6721 -55.08191,55.08191 v 91.80318 c 0,30.98357 24.09834,55.0819 55.08191,55.0819 z"
         style="fill:#ffd900;fill-opacity:1;stroke-width:7.34425449"
         id="path1078"
         inkscape:connector-curvature="0" />
    </g>
    <g
       id="g937" />
  </g>
</svg>
