<?xml version="1.0" encoding="UTF-8" standalone="no"?>
<!-- Created with Inkscape (http://www.inkscape.org/) -->

<svg
   xmlns:dc="http://purl.org/dc/elements/1.1/"
   xmlns:cc="http://creativecommons.org/ns#"
   xmlns:rdf="http://www.w3.org/1999/02/22-rdf-syntax-ns#"
   xmlns:svg="http://www.w3.org/2000/svg"
   xmlns="http://www.w3.org/2000/svg"
   xmlns:xlink="http://www.w3.org/1999/xlink"
   xmlns:sodipodi="http://sodipodi.sourceforge.net/DTD/sodipodi-0.dtd"
   xmlns:inkscape="http://www.inkscape.org/namespaces/inkscape"
   width="1920"
   height="1080"
   viewBox="0 0 507.99998 285.75002"
   version="1.1"
   id="svg8"
   inkscape:version="0.92.4 (5da689c313, 2019-01-14)"
   sodipodi:docname="ramspeakswide.svg"
   inkscape:export-filename="/home/ram/Documents/Multimedia/Images/Vector/Logo/ram-speaks-wide.png"
   inkscape:export-xdpi="96"
   inkscape:export-ydpi="96">
  <defs
     id="defs2">
    <linearGradient
       inkscape:collect="always"
       id="linearGradient821">
      <stop
         style="stop-color:#222222;stop-opacity:1;"
         offset="0"
         id="stop817" />
      <stop
         style="stop-color:#313131;stop-opacity:1"
         offset="1"
         id="stop819" />
    </linearGradient>
    <linearGradient
       inkscape:collect="always"
       xlink:href="#linearGradient821"
       id="linearGradient823"
       x1="0"
       y1="297.00006"
       x2="1058.3334"
       y2="-761.33331"
       gradientUnits="userSpaceOnUse"
       gradientTransform="matrix(0.07987644,0,0,0.07987644,21.265308,92.756935)" />
    <linearGradient
       inkscape:collect="always"
       xlink:href="#linearGradient821"
       id="linearGradient912"
       x1="508"
       y1="-1.1368684e-13"
       x2="-2.7755576e-17"
       y2="285.75"
       gradientUnits="userSpaceOnUse" />
    <filter
       style="color-interpolation-filters:sRGB;"
       inkscape:label="Drop Shadow"
       id="filter3098">
      <feFlood
         flood-opacity="0.498039"
         flood-color="rgb(0,0,0)"
         result="flood"
         id="feFlood3088" />
      <feComposite
         in="flood"
         in2="SourceGraphic"
         operator="in"
         result="composite1"
         id="feComposite3090" />
      <feGaussianBlur
         in="composite1"
         stdDeviation="4"
         result="blur"
         id="feGaussianBlur3092" />
      <feOffset
         dx="2"
         dy="2"
         result="offset"
         id="feOffset3094" />
      <feComposite
         in="SourceGraphic"
         in2="offset"
         operator="over"
         result="composite2"
         id="feComposite3096" />
    </filter>
  </defs>
  <sodipodi:namedview
     id="base"
     pagecolor="#ffffff"
     bordercolor="#666666"
     borderopacity="1.0"
     inkscape:pageopacity="0.0"
     inkscape:pageshadow="2"
     inkscape:zoom="0.90509665"
     inkscape:cx="924.36817"
     inkscape:cy="417.84351"
     inkscape:document-units="mm"
     inkscape:current-layer="layer1"
     showgrid="false"
     units="px"
     inkscape:window-width="3200"
     inkscape:window-height="1672"
     inkscape:window-x="0"
     inkscape:window-y="54"
     inkscape:window-maximized="1"
     showguides="true"
     inkscape:guide-bbox="true" />
  <metadata
     id="metadata5">
    <rdf:RDF>
      <cc:Work
         rdf:about="">
        <dc:format>image/svg+xml</dc:format>
        <dc:type
           rdf:resource="http://purl.org/dc/dcmitype/StillImage" />
        <dc:title />
      </cc:Work>
    </rdf:RDF>
  </metadata>
  <g
     inkscape:groupmode="layer"
     id="layer3"
     inkscape:label="Base"
     sodipodi:insensitive="true">
    <rect
       style="opacity:1;fill:url(#linearGradient912);fill-opacity:1;stroke:none;stroke-width:0.13229166;stroke-miterlimit:4;stroke-dasharray:none;stroke-opacity:1"
       id="rect904"
       width="508"
       height="285.75"
       x="-2.7755576e-17"
       y="-1.1368684e-13" />
  </g>
  <g
     inkscape:groupmode="layer"
     id="layer4"
     inkscape:label="Data"
     sodipodi:insensitive="true"
     style="display:inline">
    <g
       id="g952"
       transform="translate(-137.10067,119.77899)">
      <path
         d="m 162.19252,138.97531 q 1.41252,0 2.20133,0.64206 0.80716,0.62371 0.80716,1.76106 0,0.3302 -0.11007,2.09127 -0.0183,0.51364 -0.055,1.06398 -0.0367,0.53199 -0.0367,0.91722 0,0.31186 0.0917,0.44027 0.0917,0.11006 0.3302,0.11006 0.18345,0 0.47696,-0.0734 l 0.18344,0.14675 -0.22013,1.28411 q -0.58702,0.38524 -1.33914,0.45861 -0.55034,-0.055 -0.91723,-0.38523 -0.36689,-0.34854 -0.4953,-0.95391 h -0.12841 q -0.91722,0.97225 -1.88948,1.35749 -1.3208,-0.0183 -2.07292,-0.69709 -0.75212,-0.67875 -0.75212,-1.85279 0,-0.91722 0.45861,-1.43087 0.47696,-0.53199 1.43087,-0.71543 l 2.8067,-0.53199 v -0.75212 q 0,-1.19239 -1.17405,-1.19239 -0.56867,0 -1.21073,0.25682 -0.62371,0.25682 -1.41252,0.80716 l -0.18345,-0.11007 -0.27516,-1.61431 q 0.78881,-0.4953 1.68769,-0.75212 0.89887,-0.27517 1.79775,-0.27517 z m -1.19239,5.2832 q -0.29351,0.0734 -0.44026,0.25682 -0.12842,0.1651 -0.12842,0.51365 0,0.47695 0.25683,0.75212 0.25682,0.25682 0.71543,0.25682 0.71543,0 1.50424,-0.84384 l 0.0367,-1.35749 z"
         style="font-style:normal;font-variant:normal;font-weight:bold;font-stretch:normal;font-size:18.34444427px;line-height:1.25;font-family:'Alegreya Sans';-inkscape-font-specification:'Alegreya Sans Bold';letter-spacing:0px;word-spacing:0px;fill:#ffffff;fill-opacity:1;stroke:none;stroke-width:0.26458332"
         id="path874"
         inkscape:connector-curvature="0" />
      <path
         d="m 172.78844,142.35069 q 0.0183,-0.64206 -0.29351,-0.9906 -0.29351,-0.36689 -0.86219,-0.36689 -0.8255,0 -1.76106,0.78881 v 2.12796 l 0.11006,3.76061 h -2.43981 l 0.12841,-3.52214 -0.0917,-4.84293 2.3114,-0.20179 v 1.24742 h 0.12841 q 1.00895,-0.91722 2.20134,-1.3208 1.39417,0 2.12795,0.64206 0.73378,0.62371 0.69709,1.8161 l -0.055,2.43981 0.11006,3.74227 h -2.45815 z"
         style="font-style:normal;font-variant:normal;font-weight:bold;font-stretch:normal;font-size:18.34444427px;line-height:1.25;font-family:'Alegreya Sans';-inkscape-font-specification:'Alegreya Sans Bold';letter-spacing:0px;word-spacing:0px;fill:#ffffff;fill-opacity:1;stroke:none;stroke-width:0.26458332"
         id="path876"
         inkscape:connector-curvature="0" />
      <path
         d="m 180.75538,138.97531 q 0.60537,0 1.19239,0.12841 0.60537,0.11007 1.06398,0.3302 l -0.40358,1.94451 -0.20179,0.0917 q -0.93557,-0.51365 -1.66934,-0.51365 -0.84385,0 -1.30246,0.60537 -0.45861,0.60536 -0.45861,1.72438 0,1.28411 0.4953,1.96285 0.4953,0.67875 1.41252,0.67875 0.8255,0 1.83445,-0.45862 l 0.18344,0.14676 -0.23848,1.88948 q -1.10066,0.34854 -2.25636,0.34854 -1.76107,0 -2.75167,-1.13735 -0.9906,-1.1557 -0.9906,-3.21028 0,-2.12796 1.08232,-3.32035 1.08232,-1.21073 3.00849,-1.21073 z"
         style="font-style:normal;font-variant:normal;font-weight:bold;font-stretch:normal;font-size:18.34444427px;line-height:1.25;font-family:'Alegreya Sans';-inkscape-font-specification:'Alegreya Sans Bold';letter-spacing:0px;word-spacing:0px;fill:#ffffff;fill-opacity:1;stroke:none;stroke-width:0.26458332"
         id="path878"
         inkscape:connector-curvature="0" />
      <path
         d="m 189.55813,142.35069 q 0.0183,-0.6604 -0.27516,-1.00895 -0.29352,-0.34854 -0.86219,-0.34854 -0.8255,0 -1.76107,0.78881 l -0.0367,2.12796 0.12841,3.76061 h -2.43981 l 0.12841,-3.54048 -0.11006,-9.15388 2.43981,-0.18344 -0.0917,5.55836 h 0.11007 q 1.00895,-0.91722 2.21968,-1.3208 1.39418,0 2.10961,0.64206 0.73378,0.62371 0.71543,1.8161 l -0.055,2.43981 0.0917,3.74227 h -2.43981 z"
         style="font-style:normal;font-variant:normal;font-weight:bold;font-stretch:normal;font-size:18.34444427px;line-height:1.25;font-family:'Alegreya Sans';-inkscape-font-specification:'Alegreya Sans Bold';letter-spacing:0px;word-spacing:0px;fill:#ffffff;fill-opacity:1;stroke:none;stroke-width:0.26458332"
         id="path880"
         inkscape:connector-curvature="0" />
      <path
         d="m 197.56004,138.97531 q 1.87113,0 2.86173,1.10067 0.9906,1.10066 0.9906,3.17359 0,2.23802 -1.06398,3.43041 -1.06398,1.17404 -3.06352,1.17404 -1.87113,0 -2.86173,-1.10066 -0.9906,-1.10067 -0.9906,-3.17359 0,-2.23803 1.06397,-3.41207 1.06398,-1.19239 3.06353,-1.19239 z m -0.1651,1.651 q -0.88054,0 -1.28412,0.58702 -0.38523,0.58703 -0.38523,1.88948 0,1.68769 0.40358,2.40312 0.40358,0.71544 1.3208,0.71544 0.88053,0 1.26577,-0.56868 0.40357,-0.58702 0.40357,-1.90782 0,-1.66935 -0.42192,-2.38478 -0.40358,-0.73378 -1.30245,-0.73378 z"
         style="font-style:normal;font-variant:normal;font-weight:bold;font-stretch:normal;font-size:18.34444427px;line-height:1.25;font-family:'Alegreya Sans';-inkscape-font-specification:'Alegreya Sans Bold';letter-spacing:0px;word-spacing:0px;fill:#ffffff;fill-opacity:1;stroke:none;stroke-width:0.26458332"
         id="path882"
         inkscape:connector-curvature="0" />
      <path
         d="m 207.69133,139.12207 q 0.1651,0 0.45861,0.0367 v 2.25636 l -0.25682,0.0917 q -0.31186,-0.12841 -0.67875,-0.12841 -1.06397,0 -1.92616,1.37584 v 1.1557 l 0.12841,3.76061 h -2.43981 l 0.14675,-3.52214 -0.11006,-4.84293 2.3114,-0.20179 -0.0184,1.66935 h 0.14676 q 0.89887,-1.651 2.23802,-1.651 z"
         style="font-style:normal;font-variant:normal;font-weight:bold;font-stretch:normal;font-size:18.34444427px;line-height:1.25;font-family:'Alegreya Sans';-inkscape-font-specification:'Alegreya Sans Bold';letter-spacing:0px;word-spacing:0px;fill:#ffffff;fill-opacity:1;stroke:none;stroke-width:0.26458332"
         id="path884"
         inkscape:connector-curvature="0" />
      <path
         d="m 209.05598,145.19408 q 0.56868,0 0.88054,0.3302 0.3302,0.3302 0.3302,0.91722 0,0.62371 -0.34855,0.9906 -0.34854,0.36689 -0.95391,0.36689 -0.60537,0 -0.93557,-0.3302 -0.31185,-0.3302 -0.31185,-0.93557 0,-0.60536 0.34854,-0.97225 0.36689,-0.36689 0.9906,-0.36689 z"
         style="font-style:normal;font-variant:normal;font-weight:bold;font-stretch:normal;font-size:18.34444427px;line-height:1.25;font-family:'Alegreya Sans';-inkscape-font-specification:'Alegreya Sans Bold';letter-spacing:0px;word-spacing:0px;fill:#ffffff;fill-opacity:1;stroke:none;stroke-width:0.26458332"
         id="path886"
         inkscape:connector-curvature="0" />
      <path
         d="m 216.4809,134.75609 q 0.75212,0 1.59596,0.1651 l -0.1651,1.8161 -0.1651,0.11007 q -0.86218,-0.36689 -1.50424,-0.36689 -1.13736,0 -1.1557,1.30245 l -0.0183,1.43087 h 2.07292 l 0.0734,0.12841 -0.11007,1.33914 h -2.07292 l -0.055,3.22863 0.12841,3.76061 h -2.43981 l 0.14676,-3.54048 -0.0367,-3.44876 h -1.28411 l -0.0917,-0.12841 0.12841,-1.33914 h 1.22908 l -0.0183,-1.00895 q 0,-1.651 0.97226,-2.54987 0.9906,-0.89888 2.77001,-0.89888 z"
         style="font-style:normal;font-variant:normal;font-weight:bold;font-stretch:normal;font-size:18.34444427px;line-height:1.25;font-family:'Alegreya Sans';-inkscape-font-specification:'Alegreya Sans Bold';letter-spacing:0px;word-spacing:0px;fill:#ffffff;fill-opacity:1;stroke:none;stroke-width:0.26458332"
         id="path888"
         inkscape:connector-curvature="0" />
      <path
         d="m 228.27867,147.67058 0.14676,-5.31989 q 0,-1.35749 -1.1557,-1.35749 -0.8255,0 -1.72438,0.73378 l -0.055,2.20133 0.11007,3.74227 h -2.43981 l 0.14676,-5.31989 q 0.0183,-0.6604 -0.29352,-1.00895 -0.29351,-0.34854 -0.86218,-0.34854 -0.80716,0 -1.77942,0.77047 v 2.1463 l 0.11007,3.76061 h -2.42147 l 0.12842,-3.52214 -0.0917,-4.84293 2.29306,-0.20179 v 1.24742 h 0.12841 q 1.00894,-0.91722 2.21968,-1.3208 2.05458,0 2.62325,1.37584 h 0.11007 q 1.04563,-0.97226 2.38478,-1.37584 1.39418,0 2.10961,0.64206 0.73378,0.62371 0.69709,1.8161 l -0.055,2.43981 0.11007,3.74227 z"
         style="font-style:normal;font-variant:normal;font-weight:bold;font-stretch:normal;font-size:18.34444427px;line-height:1.25;font-family:'Alegreya Sans';-inkscape-font-specification:'Alegreya Sans Bold';letter-spacing:0px;word-spacing:0px;fill:#ffffff;fill-opacity:1;stroke:none;stroke-width:0.26458332"
         id="path890"
         inkscape:connector-curvature="0" />
      <path
         d="m 237.35257,135.41649 -3.7973,14.3637 h -1.68769 l -0.14675,-0.20179 3.77895,-14.38204 h 1.651 z"
         style="font-style:normal;font-variant:normal;font-weight:bold;font-stretch:normal;font-size:18.34444427px;line-height:1.25;font-family:'Alegreya Sans';-inkscape-font-specification:'Alegreya Sans Bold';letter-spacing:0px;word-spacing:0px;fill:#ffffff;fill-opacity:1;stroke:none;stroke-width:0.26458332"
         id="path892"
         inkscape:connector-curvature="0" />
      <path
         d="m 242.76791,139.12207 q 0.1651,0 0.45861,0.0367 v 2.25636 l -0.25682,0.0917 q -0.31185,-0.12841 -0.67874,-0.12841 -1.06398,0 -1.92617,1.37584 v 1.1557 l 0.12841,3.76061 h -2.43981 l 0.14676,-3.52214 -0.11007,-4.84293 2.3114,-0.20179 -0.0183,1.66935 h 0.14675 q 0.89888,-1.651 2.23802,-1.651 z"
         style="font-style:normal;font-variant:normal;font-weight:bold;font-stretch:normal;font-size:18.34444427px;line-height:1.25;font-family:'Alegreya Sans';-inkscape-font-specification:'Alegreya Sans Bold';letter-spacing:0px;word-spacing:0px;fill:#ffffff;fill-opacity:1;stroke:none;stroke-width:0.26458332"
         id="path894"
         inkscape:connector-curvature="0" />
      <path
         d="m 247.60884,138.97531 q 1.41252,0 2.20133,0.64206 0.80716,0.62371 0.80716,1.76106 0,0.3302 -0.11007,2.09127 -0.0183,0.51364 -0.055,1.06398 -0.0367,0.53199 -0.0367,0.91722 0,0.31186 0.0917,0.44027 0.0917,0.11006 0.3302,0.11006 0.18345,0 0.47696,-0.0734 l 0.18344,0.14675 -0.22013,1.28411 q -0.58702,0.38524 -1.33914,0.45861 -0.55034,-0.055 -0.91723,-0.38523 -0.36689,-0.34854 -0.4953,-0.95391 h -0.12841 q -0.91722,0.97225 -1.88948,1.35749 -1.3208,-0.0183 -2.07292,-0.69709 -0.75212,-0.67875 -0.75212,-1.85279 0,-0.91722 0.45861,-1.43087 0.47696,-0.53199 1.43087,-0.71543 l 2.8067,-0.53199 v -0.75212 q 0,-1.19239 -1.17405,-1.19239 -0.56867,0 -1.21073,0.25682 -0.62371,0.25682 -1.41252,0.80716 l -0.18345,-0.11007 -0.27516,-1.61431 q 0.78881,-0.4953 1.68769,-0.75212 0.89887,-0.27517 1.79775,-0.27517 z m -1.19239,5.2832 q -0.29351,0.0734 -0.44026,0.25682 -0.12842,0.1651 -0.12842,0.51365 0,0.47695 0.25683,0.75212 0.25682,0.25682 0.71543,0.25682 0.71543,0 1.50424,-0.84384 l 0.0367,-1.35749 z"
         style="font-style:normal;font-variant:normal;font-weight:bold;font-stretch:normal;font-size:18.34444427px;line-height:1.25;font-family:'Alegreya Sans';-inkscape-font-specification:'Alegreya Sans Bold';letter-spacing:0px;word-spacing:0px;fill:#ffffff;fill-opacity:1;stroke:none;stroke-width:0.26458332"
         id="path896"
         inkscape:connector-curvature="0" />
      <path
         d="m 263.17611,147.67058 0.14675,-5.31989 q 0,-1.35749 -1.1557,-1.35749 -0.8255,0 -1.72437,0.73378 l -0.055,2.20133 0.11007,3.74227 h -2.43981 l 0.14675,-5.31989 q 0.0183,-0.6604 -0.29351,-1.00895 -0.29351,-0.34854 -0.86219,-0.34854 -0.80715,0 -1.77941,0.77047 v 2.1463 l 0.11007,3.76061 h -2.42147 l 0.12841,-3.52214 -0.0917,-4.84293 2.29306,-0.20179 v 1.24742 h 0.12841 q 1.00894,-0.91722 2.21968,-1.3208 2.05457,0 2.62325,1.37584 h 0.11007 q 1.04563,-0.97226 2.38478,-1.37584 1.39417,0 2.10961,0.64206 0.73377,0.62371 0.69709,1.8161 l -0.055,2.43981 0.11007,3.74227 z"
         style="font-style:normal;font-variant:normal;font-weight:bold;font-stretch:normal;font-size:18.34444427px;line-height:1.25;font-family:'Alegreya Sans';-inkscape-font-specification:'Alegreya Sans Bold';letter-spacing:0px;word-spacing:0px;fill:#ffffff;fill-opacity:1;stroke:none;stroke-width:0.26458332"
         id="path898"
         inkscape:connector-curvature="0" />
      <path
         d="m 267.92072,144.14844 -0.0917,-4.84293 2.40312,-0.20179 -0.11006,4.80625 0.11006,3.76061 h -2.43981 z m 1.1557,-9.19056 q 0.56868,0 0.88054,0.3302 0.3302,0.3302 0.3302,0.91722 0,0.62371 -0.34855,0.9906 -0.34854,0.36689 -0.95391,0.36689 -0.60537,0 -0.93557,-0.3302 -0.31185,-0.3302 -0.31185,-0.93557 0,-0.60536 0.34854,-0.97225 0.36689,-0.36689 0.9906,-0.36689 z"
         style="font-style:normal;font-variant:normal;font-weight:bold;font-stretch:normal;font-size:18.34444427px;line-height:1.25;font-family:'Alegreya Sans';-inkscape-font-specification:'Alegreya Sans Bold';letter-spacing:0px;word-spacing:0px;fill:#ffffff;fill-opacity:1;stroke:none;stroke-width:0.26458332"
         id="path900"
         inkscape:connector-curvature="0" />
      <path
         d="m 274.02427,140.44287 1.52258,4.76955 h 0.14676 l 1.52259,-4.56776 0.31185,-1.50425 h 2.09127 l -2.78836,7.96149 q -0.44026,1.24742 -0.9906,1.99954 -0.55033,0.77047 -1.37583,1.24743 -0.8255,0.4953 -2.12795,0.84384 l -0.18345,-0.0183 q -0.62371,-0.60537 -1.02729,-1.43087 l 0.0734,-0.23848 q 1.1557,-0.20179 1.90782,-0.60536 0.75213,-0.38524 1.43087,-1.22908 l -3.11856,-8.47514 2.3114,-0.11006 z"
         style="font-style:normal;font-variant:normal;font-weight:bold;font-stretch:normal;font-size:18.34444427px;line-height:1.25;font-family:'Alegreya Sans';-inkscape-font-specification:'Alegreya Sans Bold';letter-spacing:0px;word-spacing:0px;fill:#ffffff;fill-opacity:1;stroke:none;stroke-width:0.26458332"
         id="path902"
         inkscape:connector-curvature="0" />
      <path
         d="m 287.15058,143.70818 -4.953,0.0367 q 0.1651,2.29305 2.32974,2.29305 1.13736,0 2.53154,-0.64205 l 0.20178,0.12841 -0.36688,1.8161 q -1.39418,0.51364 -2.62326,0.51364 -2.01789,0 -3.17359,-1.17404 -1.13735,-1.17405 -1.13735,-3.24697 0,-2.05458 1.11901,-3.24697 1.11901,-1.21073 3.02683,-1.21073 1.63266,0 2.51319,0.89888 0.89888,0.88053 0.89888,2.4765 0,0.42192 -0.0917,1.06398 z m -1.76107,-1.63266 q 0,-0.73378 -0.3302,-1.10066 -0.3302,-0.38524 -0.97225,-0.38524 -0.71544,0 -1.19239,0.47696 -0.47696,0.45861 -0.64206,1.33914 l 3.10021,-0.0734 z"
         style="font-style:normal;font-variant:normal;font-weight:bold;font-stretch:normal;font-size:18.34444427px;line-height:1.25;font-family:'Alegreya Sans';-inkscape-font-specification:'Alegreya Sans Bold';letter-spacing:0px;word-spacing:0px;fill:#ffffff;fill-opacity:1;stroke:none;stroke-width:0.26458332"
         id="path904"
         inkscape:connector-curvature="0" />
      <path
         d="m 293.93171,139.12207 q 0.1651,0 0.45861,0.0367 v 2.25636 l -0.25682,0.0917 q -0.31186,-0.12841 -0.67875,-0.12841 -1.06397,0 -1.92616,1.37584 v 1.1557 l 0.12841,3.76061 h -2.43981 l 0.14675,-3.52214 -0.11006,-4.84293 2.3114,-0.20179 -0.0183,1.66935 h 0.14676 q 0.89887,-1.651 2.23802,-1.651 z"
         style="font-style:normal;font-variant:normal;font-weight:bold;font-stretch:normal;font-size:18.34444427px;line-height:1.25;font-family:'Alegreya Sans';-inkscape-font-specification:'Alegreya Sans Bold';letter-spacing:0px;word-spacing:0px;fill:#ffffff;fill-opacity:1;stroke:none;stroke-width:0.26458332"
         id="path906"
         inkscape:connector-curvature="0" />
    </g>
    <path
       inkscape:connector-curvature="0"
       id="path908"
       style="font-style:normal;font-variant:normal;font-weight:bold;font-stretch:normal;font-size:18.34444427px;line-height:1.25;font-family:'Alegreya Sans';-inkscape-font-specification:'Alegreya Sans Bold';letter-spacing:0px;word-spacing:0px;fill:#ffffff;fill-opacity:1;stroke:none;stroke-width:0.26458332"
       d="m 168.63928,253.17759 -0.055,9.22725 v 9.96104 l -1.651,0.12841 -0.20179,-0.22013 0.0183,-9.68587 0.0183,-9.44739 1.68768,-0.12841 z" />
    <g
       id="g961"
       transform="translate(-127.53744,121.96198)">
      <g
         id="g956">
        <path
           inkscape:connector-curvature="0"
           id="path910"
           style="font-style:normal;font-variant:normal;font-weight:bold;font-stretch:normal;font-size:18.34444427px;line-height:1.25;font-family:'Alegreya Sans';-inkscape-font-specification:'Alegreya Sans Bold';letter-spacing:0px;word-spacing:0px;fill:#ffffff;fill-opacity:1;stroke:none;stroke-width:0.26458332"
           d="m 315.1849,149.13957 c 0.28663,-1.03904 0.75241,-3.5829 0.75241,-4.76526 0,-1.25401 -1.14653,-1.57648 -2.29305,-1.57648 -1.18236,0 -2.29306,0.32247 -2.29306,1.57648 0,1.18236 0.42995,3.76204 0.71658,4.76526 0.17914,0.68075 0.89572,0.82406 1.57648,0.82406 0.64492,0 1.3615,-0.14331 1.54064,-0.82406 z m -3.97702,-7.1658 c -0.64492,-0.64492 -1.07487,-1.57648 -1.00321,-2.61552 0.0717,-1.75562 1.50482,-3.22461 3.29627,-3.26044 1.93476,-0.10748 3.5829,1.46899 3.5829,3.40376 0,0.96738 -0.42995,1.86311 -1.03904,2.4722 -0.10749,0.10749 -0.10749,0.2508 0,0.32246 0.35829,0.2508 0.60909,0.57326 0.75241,0.93155 0.0716,0.10749 0.2508,0.14332 0.35829,0.0358 1.03904,-0.96738 1.64813,-2.32888 1.6123,-3.86953 -0.0358,-2.723 -2.25723,-4.9444 -4.98023,-5.01606 -2.93798,-0.10749 -5.30269,2.25723 -5.30269,5.12355 0,1.50482 0.60909,2.83049 1.6123,3.76204 0.10749,0.10749 0.28664,0.0717 0.35829,-0.0358 0.14332,-0.35829 0.39412,-0.68075 0.75241,-0.93155 0.10749,-0.0717 0.10749,-0.21497 0,-0.32246 z m 2.43638,-10.35458 c -4.4428,0 -8.0257,3.61873 -8.0257,8.02569 0,3.22461 1.86311,5.94762 4.47862,7.23746 0.17915,0.0717 0.35829,-0.0717 0.32247,-0.21497 -0.10749,-0.57327 -0.17915,-1.1107 -0.21498,-1.61231 0,-0.0717 -0.0358,-0.10749 -0.0717,-0.14331 -1.71979,-1.14653 -2.83049,-3.0813 -2.79466,-5.3027 0,-3.43958 2.83049,-6.23424 6.27008,-6.23424 3.47541,-0.0358 6.34173,2.79466 6.34173,6.27007 0,2.2214 -1.18236,4.192 -2.90215,5.30269 -0.0358,0.50161 -0.10749,1.1107 -0.21497,1.7198 -0.0358,0.14331 0.14331,0.28663 0.32246,0.21497 2.61551,-1.28984 4.51445,-3.97702 4.51445,-7.23746 0,-4.40696 -3.61873,-8.02569 -8.02569,-8.02569 z m 0,5.73264 c -1.28985,0 -2.29306,1.03904 -2.29306,2.29305 0,1.28985 1.00321,2.29306 2.29306,2.29306 1.25401,0 2.29305,-1.00321 2.29305,-2.29306 0,-1.25401 -1.03904,-2.29305 -2.29305,-2.29305 z" />
        <path
           inkscape:connector-curvature="0"
           id="path912"
           style="font-style:normal;font-variant:normal;font-weight:bold;font-stretch:normal;font-size:18.34444427px;line-height:1.25;font-family:'Alegreya Sans';-inkscape-font-specification:'Alegreya Sans Bold';letter-spacing:0px;word-spacing:0px;fill:#ffffff;fill-opacity:1;stroke:none;stroke-width:0.26458332"
           d="m 337.72133,131.90582 c -4.90857,0 -8.88559,4.01285 -8.88559,8.88559 0,4.90857 3.97702,8.88559 8.88559,8.88559 4.87274,0 8.88559,-3.97702 8.88559,-8.88559 0,-4.87274 -4.01285,-8.88559 -8.88559,-8.88559 z m 3.5829,13.07758 c -0.14332,0 -0.2508,-0.0358 -0.35829,-0.10748 -2.25723,-1.36151 -4.83692,-1.39733 -7.4166,-0.89573 -0.14332,0.0358 -0.32246,0.10749 -0.42995,0.10749 -0.35829,0 -0.57326,-0.28663 -0.57326,-0.57327 0,-0.35829 0.21497,-0.53743 0.5016,-0.60909 2.93798,-0.64492 5.91179,-0.57326 8.49147,0.93156 0.21498,0.14331 0.32246,0.28663 0.32246,0.60909 0,0.32246 -0.2508,0.53743 -0.53743,0.53743 z m 0.96738,-2.32888 c -0.17914,0 -0.32246,-0.10749 -0.42995,-0.14332 -2.25722,-1.32567 -5.58932,-1.8631 -8.56313,-1.07487 -0.17914,0.0358 -0.2508,0.10749 -0.42994,0.10749 -0.35829,0 -0.68075,-0.32246 -0.68075,-0.71658 0,-0.35829 0.17914,-0.60909 0.53743,-0.71658 1.00321,-0.28663 2.04225,-0.50161 3.51124,-0.50161 2.32889,0 4.58611,0.57327 6.34173,1.64814 0.28664,0.14331 0.42995,0.39412 0.42995,0.68075 -0.0358,0.39412 -0.32246,0.71658 -0.71658,0.71658 z m 1.1107,-2.723 c -0.17914,0 -0.28663,-0.0717 -0.46578,-0.14332 -2.54386,-1.54065 -7.09414,-1.89894 -10.06794,-1.07487 -0.10749,0.0358 -0.28664,0.10749 -0.46578,0.10749 -0.46578,0 -0.82407,-0.39412 -0.82407,-0.8599 0,-0.5016 0.32246,-0.75241 0.64492,-0.85989 1.25402,-0.35829 2.65135,-0.53744 4.192,-0.53744 2.61551,0 5.37435,0.53744 7.34494,1.71979 0.28663,0.14332 0.46578,0.35829 0.46578,0.78824 0,0.50161 -0.39412,0.8599 -0.82407,0.8599 z" />
      </g>
    </g>
  </g>
  <g
     inkscape:label="Background"
     inkscape:groupmode="layer"
     id="layer1"
     transform="translate(0,-11.249983)"
     sodipodi:insensitive="true"
     style="display:inline">
    <rect
       id="rect10"
       width="84.535904"
       height="84.535904"
       x="21.265306"
       y="31.94434"
       style="fill:url(#linearGradient823);fill-opacity:1;stroke-width:0.02113397;filter:url(#filter3098)"
       ry="13.264295" />
  </g>
  <g
     inkscape:groupmode="layer"
     id="layer2"
     inkscape:label="Text"
     transform="translate(0,-772.58333)"
     sodipodi:insensitive="true"
     style="display:inline">
    <g
       aria-label="ram speaks"
       transform="matrix(0.37745994,0,0,0.37745994,-701.0452,365.4369)"
       style="font-style:normal;font-weight:normal;font-size:40px;line-height:1.25;font-family:sans-serif;letter-spacing:0px;word-spacing:0px;fill:#000000;fill-opacity:1;stroke:none"
       id="flowRoot826">
      <path
         d="m 1946.6784,1311.99 q 0.24,0 0.96,0.08 v 5.8 l -0.64,0.2 q -0.56,-0.28 -1.48,-0.28 -2.16,0 -3.96,2.32 v 2.36 l 0.28,8.28 h -6.32 l 0.32,-7.64 -0.28,-10.68 6.04,-0.48 v 3.6 h 0.28 q 1.88,-3.56 4.8,-3.56 z"
         style="font-style:normal;font-variant:normal;font-weight:800;font-stretch:normal;font-family:'Alegreya Sans';-inkscape-font-specification:'Alegreya Sans Ultra-Bold';text-align:center;text-anchor:middle;fill:#ffffff"
         id="path1059"
         inkscape:connector-curvature="0" />
      <path
         d="m 1957.3828,1311.63 q 3.32,0 5.16,1.44 1.84,1.4 1.84,4.04 0,0.92 -0.08,2.12 -0.08,1.2 -0.12,2.28 -0.2,2.88 -0.2,3.96 0,0.56 0.16,0.8 0.2,0.24 0.64,0.24 0.36,0 0.88,-0.16 l 0.44,0.36 -0.56,3.32 q -1.32,0.92 -3.24,1.08 -1.2,-0.12 -2.04,-0.84 -0.84,-0.72 -1.2,-2.04 h -0.28 q -2,2.12 -4.08,2.92 -2.96,-0.04 -4.68,-1.6 -1.68,-1.56 -1.68,-4.24 0,-4.12 4.32,-4.84 l 5.92,-1 v -1.16 q 0,-1.24 -0.56,-1.76 -0.52,-0.56 -1.72,-0.56 -1.2,0 -2.6,0.52 -1.36,0.52 -3.16,1.64 l -0.4,-0.28 -0.72,-4.12 q 1.8,-1 3.88,-1.56 2.08,-0.56 4.08,-0.56 z m -2.24,11.48 q -0.6,0.12 -0.92,0.48 -0.28,0.36 -0.28,1.08 0,0.96 0.48,1.48 0.52,0.52 1.4,0.52 1.28,0 2.72,-1.36 l 0.04,-2.88 z"
         style="font-style:normal;font-variant:normal;font-weight:800;font-stretch:normal;font-family:'Alegreya Sans';-inkscape-font-specification:'Alegreya Sans Ultra-Bold';text-align:center;text-anchor:middle;fill:#ffffff"
         id="path1061"
         inkscape:connector-curvature="0" />
      <path
         d="m 1991.3159,1319.55 q 0.08,-2.76 -2.24,-2.76 -1.4,0 -3,1.16 l -0.12,4.52 0.28,8.28 h -6.28 l 0.32,-11.2 q 0.08,-2.76 -2.28,-2.76 -1.36,0 -3.04,1.24 v 4.44 l 0.28,8.28 h -6.28 l 0.28,-7.64 -0.24,-10.68 5.96,-0.48 v 2.76 h 0.28 q 2.2,-2.08 4.76,-2.92 2.24,0 3.68,0.8 1.48,0.76 2.04,2.2 h 0.24 q 2.2,-2.08 5.12,-3 3,0 4.56,1.4 1.6,1.36 1.52,3.92 l -0.12,5.36 0.24,8.28 h -6.28 z"
         style="font-style:normal;font-variant:normal;font-weight:800;font-stretch:normal;font-family:'Alegreya Sans';-inkscape-font-specification:'Alegreya Sans Ultra-Bold';text-align:center;text-anchor:middle;fill:#ffffff"
         id="path1063"
         inkscape:connector-curvature="0" />
      <path
         d="m 2013.9591,1311.67 q 2.88,0 5.44,0.96 l -0.8,4.52 -0.76,0.24 q -1.28,-0.8 -2.52,-1.24 -1.2,-0.44 -2.08,-0.44 -0.8,0 -1.24,0.4 -0.44,0.36 -0.44,0.88 0,0.72 0.72,1.2 0.72,0.44 2.2,1 1.68,0.68 2.72,1.28 1.04,0.6 1.8,1.68 0.8,1.08 0.8,2.72 0,1.68 -0.84,3.12 -0.84,1.44 -2.64,2.32 -1.76,0.88 -4.4,0.88 -2.96,0 -6.28,-1.12 l 0.76,-4.8 0.56,-0.4 q 1.32,1.08 2.92,1.72 1.64,0.64 2.8,0.64 0.88,0 1.32,-0.4 0.48,-0.4 0.48,-1 0,-0.68 -0.72,-1.12 -0.68,-0.48 -2.2,-1.08 -1.64,-0.64 -2.72,-1.24 -1.08,-0.6 -1.88,-1.68 -0.76,-1.12 -0.76,-2.8 0,-2.76 2.08,-4.48 2.08,-1.76 5.68,-1.76 z"
         style="font-style:normal;font-variant:normal;font-weight:800;font-stretch:normal;font-family:'Alegreya Sans';-inkscape-font-specification:'Alegreya Sans Ultra-Bold';text-align:center;text-anchor:middle;fill:#ffffff"
         id="path1065"
         inkscape:connector-curvature="0" />
      <path
         d="m 2033.3822,1311.79 q 3.48,0 5.4,2.4 1.92,2.36 1.92,6.72 0,4.92 -2.48,7.6 -2.44,2.68 -6.96,2.68 -0.96,0 -2.24,-0.2 l 0.12,7.16 h -6.28 l 0.28,-15.04 -0.28,-10.68 6.04,-0.48 v 2.76 h 0.28 q 1.04,-1.08 2,-1.76 1,-0.68 2.2,-1.16 z m -2.24,15.36 q 3.64,0 3.64,-5.32 -0.04,-5 -3.2,-5 -1.32,0 -2.72,1.16 v 4.48 l 0.08,4.28 q 1.28,0.4 2.2,0.4 z"
         style="font-style:normal;font-variant:normal;font-weight:800;font-stretch:normal;font-family:'Alegreya Sans';-inkscape-font-specification:'Alegreya Sans Ultra-Bold';text-align:center;text-anchor:middle;fill:#ffffff"
         id="path1067"
         inkscape:connector-curvature="0" />
      <path
         d="m 2058.8797,1322.43 -10.48,0.08 q 0.28,2.08 1.44,3.08 1.16,1 3.28,1 2.12,0 5.6,-1.24 l 0.48,0.32 -0.96,4.52 q -3.2,1 -5.8,1 -4.6,0 -7.24,-2.6 -2.6,-2.6 -2.6,-7.16 0,-4.56 2.52,-7.16 2.52,-2.64 6.84,-2.64 3.72,0 5.76,2 2.08,2 2.08,5.56 0,1.16 -0.24,2.44 z m -4.56,-3.92 q 0,-2.76 -2.4,-2.76 -1.36,0 -2.24,0.92 -0.88,0.88 -1.2,2.56 l 5.76,-0.16 z"
         style="font-style:normal;font-variant:normal;font-weight:800;font-stretch:normal;font-family:'Alegreya Sans';-inkscape-font-specification:'Alegreya Sans Ultra-Bold';text-align:center;text-anchor:middle;fill:#ffffff"
         id="path1069"
         inkscape:connector-curvature="0" />
      <path
         d="m 2070.7422,1311.63 q 3.32,0 5.16,1.44 1.84,1.4 1.84,4.04 0,0.92 -0.08,2.12 -0.08,1.2 -0.12,2.28 -0.2,2.88 -0.2,3.96 0,0.56 0.16,0.8 0.2,0.24 0.64,0.24 0.36,0 0.88,-0.16 l 0.44,0.36 -0.56,3.32 q -1.32,0.92 -3.24,1.08 -1.2,-0.12 -2.04,-0.84 -0.84,-0.72 -1.2,-2.04 h -0.28 q -2,2.12 -4.08,2.92 -2.96,-0.04 -4.68,-1.6 -1.68,-1.56 -1.68,-4.24 0,-4.12 4.32,-4.84 l 5.92,-1 v -1.16 q 0,-1.24 -0.56,-1.76 -0.52,-0.56 -1.72,-0.56 -1.2,0 -2.6,0.52 -1.36,0.52 -3.16,1.64 l -0.4,-0.28 -0.72,-4.12 q 1.8,-1 3.88,-1.56 2.08,-0.56 4.08,-0.56 z m -2.24,11.48 q -0.6,0.12 -0.92,0.48 -0.28,0.36 -0.28,1.08 0,0.96 0.48,1.48 0.52,0.52 1.4,0.52 1.28,0 2.72,-1.36 l 0.04,-2.88 z"
         style="font-style:normal;font-variant:normal;font-weight:800;font-stretch:normal;font-family:'Alegreya Sans';-inkscape-font-specification:'Alegreya Sans Ultra-Bold';text-align:center;text-anchor:middle;fill:#ffffff"
         id="path1071"
         inkscape:connector-curvature="0" />
      <path
         d="m 2088.6316,1322.47 0.28,8.28 h -6.32 l 0.32,-7.68 -0.24,-19.96 6.28,-0.44 z m 6.08,-2.04 q 2.04,3.52 5.92,9.28 l -0.04,0.64 q -2.08,0.44 -5.92,0.84 l -0.64,-0.32 q -3.2,-4.92 -5.36,-9.88 v -0.4 l 4.12,-6.48 0.92,-2.08 h 6.56 z"
         style="font-style:normal;font-variant:normal;font-weight:800;font-stretch:normal;font-family:'Alegreya Sans';-inkscape-font-specification:'Alegreya Sans Ultra-Bold';text-align:center;text-anchor:middle;fill:#ffffff"
         id="path1073"
         inkscape:connector-curvature="0" />
      <path
         d="m 2109.8184,1311.67 q 2.88,0 5.44,0.96 l -0.8,4.52 -0.76,0.24 q -1.28,-0.8 -2.52,-1.24 -1.2,-0.44 -2.08,-0.44 -0.8,0 -1.24,0.4 -0.44,0.36 -0.44,0.88 0,0.72 0.72,1.2 0.72,0.44 2.2,1 1.68,0.68 2.72,1.28 1.04,0.6 1.8,1.68 0.8,1.08 0.8,2.72 0,1.68 -0.84,3.12 -0.84,1.44 -2.64,2.32 -1.76,0.88 -4.4,0.88 -2.96,0 -6.28,-1.12 l 0.76,-4.8 0.56,-0.4 q 1.32,1.08 2.92,1.72 1.64,0.64 2.8,0.64 0.88,0 1.32,-0.4 0.48,-0.4 0.48,-1 0,-0.68 -0.72,-1.12 -0.68,-0.48 -2.2,-1.08 -1.64,-0.64 -2.72,-1.24 -1.08,-0.6 -1.88,-1.68 -0.76,-1.12 -0.76,-2.8 0,-2.76 2.08,-4.48 2.08,-1.76 5.68,-1.76 z"
         style="font-style:normal;font-variant:normal;font-weight:800;font-stretch:normal;font-family:'Alegreya Sans';-inkscape-font-specification:'Alegreya Sans Ultra-Bold';text-align:center;text-anchor:middle;fill:#ffffff"
         id="path1075"
         inkscape:connector-curvature="0" />
    </g>
    <g
       aria-label="ï‰"
       style="font-style:normal;font-weight:normal;font-size:293.77017212px;line-height:1.25;font-family:sans-serif;letter-spacing:0px;word-spacing:0px;fill:#ffd900;fill-opacity:1;stroke:none;stroke-width:7.34425449"
       id="text859"
       transform="matrix(0.07987644,0,0,0.07987644,21.265308,793.27768)">
      <path
         d="m 621.99023,539.21758 h -9.18032 c -5.16393,0 -9.18032,4.59015 -9.18032,9.18031 v 27.54096 c 0,43.03274 -37.29504,77.45893 -80.90155,73.44254 C 484.28546,645.365 456.74451,611.51258 456.74451,573.07 v -24.67211 c 0,-4.59016 -4.59016,-9.18031 -9.18032,-9.18031 h -9.18032 c -5.16393,0 -9.18032,4.59015 -9.18032,9.18031 v 23.52457 c 0,51.06552 36.1475,96.96711 87.21302,103.85234 v 19.50818 h -32.13111 c -5.16393,0 -9.18032,4.59016 -9.18032,9.18032 v 9.18031 c 0,5.16393 4.01639,9.18032 9.18032,9.18032 h 91.80318 c 4.59016,0 9.18032,-4.01639 9.18032,-9.18032 v -9.18031 c 0,-4.59016 -4.59016,-9.18032 -9.18032,-9.18032 h -32.13111 v -18.93441 c 48.77043,-6.88524 87.21302,-49.34421 87.21302,-100.40972 v -27.54096 c 0,-4.59016 -4.59016,-9.18031 -9.18032,-9.18031 z m -91.80318,91.80317 c 30.4098,0 55.08191,-24.09833 55.08191,-55.0819 h -49.34421 c -3.44262,0 -5.7377,-1.72131 -5.7377,-4.59016 v -9.18032 c 0,-2.29508 2.29508,-4.59016 5.7377,-4.59016 h 49.34421 v -18.36063 h -49.34421 c -3.44262,0 -5.7377,-1.72131 -5.7377,-4.59016 v -9.18032 c 0,-2.29508 2.29508,-4.59016 5.7377,-4.59016 h 49.34421 V 502.4963 h -49.34421 c -3.44262,0 -5.7377,-1.72131 -5.7377,-4.59016 v -9.18031 c 0,-2.29508 2.29508,-4.59016 5.7377,-4.59016 h 49.34421 c 0,-30.40981 -24.67211,-55.08191 -55.08191,-55.08191 -30.98357,0 -55.08191,24.6721 -55.08191,55.08191 v 91.80318 c 0,30.98357 24.09834,55.0819 55.08191,55.0819 z"
         style="fill:#ffd900;fill-opacity:1;stroke-width:7.34425449"
         id="path1078"
         inkscape:connector-curvature="0" />
    </g>
    <g
       id="g937" />
  </g>
</svg>
